<svg xmlns="http://www.w3.org/2000/svg" viewBox="0 0 14.9 17.84"><defs><style>.cls-1{fill:#60bba2;stroke:#fff;stroke-linecap:round;stroke-linejoin:round;stroke-width:0.8px;}</style></defs><title>erud_on</title><g id="Слой_2" data-name="Слой 2"><g id="Слой_1-2" data-name="Слой 1"><path class="cls-1" d="M14.5,17.43a1.77,1.77,0,0,1-1.6-1.76h0a1.77,1.77,0,0,1,1.42-1.73h.08V.4H2.21A1.78,1.78,0,0,0,.44,2.17v13.5a1.78,1.78,0,0,0,1.77,1.77H14.4"/><rect class="cls-1" x="3.19" y="3.03" width="8.96" height="2.33" rx="0.65" ry="0.65"/><path class="cls-1" d="M.41,15.81a.86.86,0,0,1,0-.16h0a1.72,1.72,0,0,1,1.71-1.71H14.4"/></g></g></svg>