<svg xmlns="http://www.w3.org/2000/svg" viewBox="0 0 19.39 18.28"><defs><style>.cls-1,.cls-2,.cls-3{fill:#60bca2;}.cls-1,.cls-3{stroke:#fff;stroke-linecap:round;stroke-linejoin:round;}.cls-1{stroke-width:1.3px;}.cls-3{stroke-width:0.8px;}</style></defs><title>zachetka_on</title><g id="Слой_2" data-name="Слой 2"><g id="Слой_1-2" data-name="Слой 1"><line class="cls-1" x1="18.74" y1="9.08" x2="18.72" y2="4.36"/><polygon class="cls-2" points="8.57 4.64 14.05 5.81 10.3 9.97 6.55 14.13 4.82 8.8 3.1 3.47 8.57 4.64"/><path class="cls-3" d="M14.65,7.49a6.51,6.51,0,0,1,1.06,2.83h0c.83.38,1.31.83,1.31,1.31s-.5,1-1.38,1.41l-.08,0a6.28,6.28,0,0,1-6,4.82,6.27,6.27,0,0,1-5.93-4.64v0c-1.25-.41-2-1-2-1.57s.69-1.1,1.82-1.51h0a7,7,0,0,1,1-2.67L3.48,5,4.4,7.45H15.33V4.72l3.48-.62L9.47.4.4,3.92,3.48,5"/></g></g></svg>